<?xml version="1.0" standalone="no"?><!DOCTYPE svg PUBLIC "-//W3C//DTD SVG 1.1//EN" "http://www.w3.org/Graphics/SVG/1.1/DTD/svg11.dtd"><svg t="1487928988566" class="icon" style="" viewBox="0 0 1024 1024" version="1.1" xmlns="http://www.w3.org/2000/svg" p-id="1301" xmlns:xlink="http://www.w3.org/1999/xlink" width="200" height="200"><defs><style type="text/css"></style></defs><path d="M841.455477 151.771659c10.952446 0 18.284435 5.696746 21.680789 9.092075s9.092076 10.727319 9.092075 21.680789v658.910954c0 10.952446-5.696746 18.285458-9.092075 21.680789s-10.727319 9.092076-21.680789 9.092075H182.544523c-10.95347 0-18.284435-5.696746-21.680789-9.092075s-9.092076-10.727319-9.092075-21.680789V182.544523c0-10.95347 5.696746-18.285458 9.092075-21.680789s10.727319-9.092076 21.680789-9.092075h658.910954m0-61.398372H182.544523c-50.694589 0-92.171236 41.476647-92.171236 92.171236v658.910954c0 50.693566 41.476647 92.171236 92.171236 92.171236h658.910954c50.693566 0 92.171236-41.476647 92.171236-92.171236V182.544523c0-50.694589-41.47767-92.171236-92.171236-92.171236z" fill="#F05B3D" p-id="1302"></path><path d="M267.543406 220.50202c40.908712 9.963932 53.323463 36.977169 53.549613 69.720921 0.899486 130.218784 0.690732 260.4478 0.196475 390.669654-0.090051 23.610744-7.063883 44.708248-31.456433 56.084343-12.153808 5.668093-23.109324 13.924127-34.539654 21.11797-12.126178 7.631818-24.170492 15.390525-36.250622 23.093974 3.809769 2.357697 6.749728 2.733251 9.69071 2.732227 119.017674-0.00307 238.035348-0.044002 357.053022-0.069584 59.122539-0.01228 118.247124-0.161682 177.367616 0.170892 8.740058 0.049119 12.926404-1.693572 14.406105-11.389398 4.479011-29.347398 10.219759-58.500369 15.388479-87.744413 4.066619-23.006993 8.011464-46.034453 12.011568-69.053726-4.016477 1.682315-6.325056 4.048199-8.309246 6.661723-16.896832 22.257933-38.042431 39.000246-63.400983 50.901297-55.80191 26.189476-114.88454 32.457226-175.218673 27.457352-28.598338-2.369977-57.263192-7.79043-85.037769-15.099906-24.050766-6.330172-27.536146-14.105253-27.549449-38.84675-0.025583-46.756907-0.01535-93.513814-0.01228-140.27072 0.005117-71.488171-0.287549-142.978389 0.172939-214.464514 0.187265-29.113061 10.025331-59.487859 51.440579-68.074421 1.736551-0.360204 3.25923-1.74883 6.560416-3.598968-80.131015 0.002047-158.096714 0.002047-236.062413 0.002047z" fill="#F05B3D" p-id="1303"></path></svg>